<svg xmlns="http://www.w3.org/2000/svg" xmlns:xlink="http://www.w3.org/1999/xlink" width="32" height="32"><defs><path id="a" d="M0 0h32v32H0z"/></defs><clipPath id="b"><use xlink:href="#a" overflow="visible"/></clipPath><path clip-path="url(#b)" fill="none" stroke="#3C79E6" stroke-miterlimit="10" d="M2.5.5h27a2 2 0 012 2v27a2 2 0 01-2 2h-27a2 2 0 01-2-2v-27a2 2 0 012-2z"/><path clip-path="url(#b)" fill="#FBBD00" d="M11.219 16c0-.892.246-1.727.673-2.443v-3.034H8.857C7.653 12.087 7 13.993 7 16s.653 3.913 1.857 5.477h3.035v-3.033A4.76 4.76 0 0111.219 16"/><path clip-path="url(#b)" fill="#0F9D58" d="M16 20.781l-2.109 2.109L16 25a8.932 8.932 0 005.477-1.856v-3.031h-3.03a4.802 4.802 0 01-2.447.668"/><path clip-path="url(#b)" fill="#31AA52" d="M11.891 18.442l-3.034 3.034c.238.31.498.606.779.887A8.942 8.942 0 0016 25v-4.219a4.782 4.782 0 01-4.109-2.339z"/><path clip-path="url(#b)" fill="#3C79E6" d="M25 16c0-.548-.05-1.096-.147-1.63l-.079-.433H16v4.219h4.27a4.756 4.756 0 01-1.823 1.956l3.03 3.03c.31-.237.606-.498.888-.778A8.944 8.944 0 0025 16"/><path clip-path="url(#b)" fill="#CF2D48" d="M19.381 12.619l.373.373 2.983-2.983-.373-.373A8.94 8.94 0 0016 7l-2.109 2.109L16 11.219a4.75 4.75 0 013.381 1.4"/><path clip-path="url(#b)" fill="#EB4132" d="M16 11.219V7a8.94 8.94 0 00-6.364 2.636 9.156 9.156 0 00-.779.887l3.034 3.035A4.782 4.782 0 0116 11.219"/></svg>